<svg width="200" height="80" viewBox="0 0 200 80" xmlns="http://www.w3.org/2000/svg">
  <defs>
    <linearGradient id="tempGradient" x1="0%" y1="0%" x2="100%" y2="0%">
      <stop offset="0%" style="stop-color:#3B82F6;stop-opacity:1" />
      <stop offset="50%" style="stop-color:#EF4444;stop-opacity:1" />
      <stop offset="100%" style="stop-color:#DC2626;stop-opacity:1" />
    </linearGradient>
    <filter id="glow">
      <feGaussianBlur stdDeviation="2" result="coloredBlur"/>
      <feMerge> 
        <feMergeNode in="coloredBlur"/>
        <feMergeNode in="SourceGraphic"/>
      </feMerge>
    </filter>
  </defs>
  
  <!-- Background circle (thermometer bulb) -->
  <circle cx="30" cy="50" r="15" fill="url(#tempGradient)" opacity="0.8"/>
  
  <!-- Thermometer body -->
  <rect x="25" y="20" width="10" height="30" fill="url(#tempGradient)" rx="5"/>
  
  <!-- Temperature lines -->
  <line x1="40" y1="25" x2="50" y2="25" stroke="#6B7280" stroke-width="2"/>
  <line x1="40" y1="35" x2="55" y2="35" stroke="#EF4444" stroke-width="2"/>
  <line x1="40" y1="45" x2="50" y2="45" stroke="#DC2626" stroke-width="3" filter="url(#glow)"/>
  
  <!-- Weather icon elements -->
  <circle cx="75" cy="30" r="8" fill="#FCD34D" opacity="0.9"/>
  <path d="M 75 22 L 77 18 M 83 30 L 87 30 M 81 24 L 84 21 M 81 36 L 84 39 M 69 24 L 66 21 M 67 30 L 63 30 M 69 36 L 66 39" stroke="#FCD34D" stroke-width="2" stroke-linecap="round"/>
  
  <!-- Chart/graph elements -->
  <polyline points="110,55 120,45 130,50 140,35 150,40 160,25" fill="none" stroke="url(#tempGradient)" stroke-width="3"/>
  <circle cx="110" cy="55" r="2" fill="#3B82F6"/>
  <circle cx="120" cy="45" r="2" fill="#EF4444"/>
  <circle cx="130" cy="50" r="2" fill="#EF4444"/>
  <circle cx="140" cy="35" r="2" fill="#DC2626"/>
  <circle cx="150" cy="40" r="2" fill="#DC2626"/>
  <circle cx="160" cy="25" r="2" fill="#DC2626"/>
  
  <!-- Title text -->
  <text x="10" y="75" font-family="system-ui, -apple-system, sans-serif" font-size="12" font-weight="600" fill="#374151">
    Is It Supposed To Be This Hot?
  </text>
</svg>
